<svg width="34" height="22" viewBox="0 0 34 22" fill="none" xmlns="http://www.w3.org/2000/svg" xmlns:xlink="http://www.w3.org/1999/xlink">
<path d="M31.2,-0.08L29.28,-0.08C28.22,-0.08 27.36,0.78 27.36,1.84L27.36,18.48C27.36,19.54 28.22,20.4 29.28,20.4L31.2,20.4C32.261,20.4 33.12,19.54 33.12,18.48L33.12,1.84C33.12,0.78 32.261,-0.08 31.2,-0.08ZM20.321,4.4L22.24,4.4C23.301,4.4 24.16,5.26 24.16,6.32L24.16,18.48C24.16,19.54 23.301,20.4 22.24,20.4L20.321,20.4C19.26,20.4 18.401,19.54 18.401,18.48L18.401,6.32C18.401,5.26 19.26,4.4 20.321,4.4ZM13.28,8.88L11.36,8.88C10.3,8.88 9.44,9.74 9.44,10.8L9.44,18.48C9.44,19.54 10.3,20.4 11.36,20.4L13.28,20.4C14.341,20.4 15.201,19.54 15.201,18.48L15.201,10.8C15.201,9.74 14.341,8.88 13.28,8.88ZM4.32,12.72L2.4,12.72C1.34,12.72 0.48,13.58 0.48,14.64L0.48,18.48C0.48,19.54 1.34,20.4 2.4,20.4L4.32,20.4C5.381,20.4 6.24,19.54 6.24,18.48L6.24,14.64C6.24,13.58 5.381,12.72 4.32,12.72Z" clip-rule="evenodd" fill-rule="evenodd" fill="#000000"/>
</svg>
