<svg width="720" height="1686" viewBox="0 0 720 1686" fill="none" xmlns="http://www.w3.org/2000/svg" xmlns:xlink="http://www.w3.org/1999/xlink">
<path d="M0,746L0,1662L720,1662L720,546C720,601.228 675.228,646 620,646L100,646C44.772,646 0,690.772 0,746Z" fill="#FFD200"/>
<rect  x="0" y="1506" width="720" height="180" fill="#FFFFFF"/>
<g filter="url(#filterI39_7;25_72)">
<rect  x="402" y="1542" width="110" height="110" rx="30" fill="#FFD200"/>
</g>
<path d="M286.444,1594.222C286.444,1605.391 277.391,1614.444 266.222,1614.444L266.222,1618.444C279.6,1618.444 290.444,1607.6 290.444,1594.222L286.444,1594.222ZM266.222,1614.444C255.054,1614.444 246,1605.391 246,1594.222L242,1594.222C242,1607.6 252.845,1618.444 266.222,1618.444L266.222,1614.444ZM246,1594.222C246,1583.054 255.054,1574 266.222,1574L266.222,1570C252.845,1570 242,1580.845 242,1594.222L246,1594.222ZM266.222,1574C277.391,1574 286.444,1583.054 286.444,1594.222L290.444,1594.222C290.444,1580.845 279.6,1570 266.222,1570L266.222,1574Z" fill="#838383"/>
<path d="M292.586,1623.414C293.367,1624.195 294.633,1624.195 295.415,1623.414C296.196,1622.633 296.196,1621.367 295.415,1620.586L292.586,1623.414ZM283.331,1608.502C282.55,1607.721 281.284,1607.721 280.503,1608.502C279.722,1609.283 279.722,1610.55 280.503,1611.331L283.331,1608.502ZM295.415,1620.586L283.331,1608.502L280.503,1611.331L292.586,1623.414L295.415,1620.586Z" fill="#838383"/>
<path d="M441.5,1572L441.5,1570C440.87,1570 440.278,1570.296 439.9,1570.8L441.5,1572ZM434,1582L432.4,1580.8C432.14,1581.146 432,1581.567 432,1582L434,1582ZM434,1617L432,1617L434,1617ZM479,1582L481,1582C481,1581.567 480.86,1581.146 480.6,1580.8L479,1582ZM471.5,1572L473.1,1570.8C472.722,1570.296 472.13,1570 471.5,1570L471.5,1572ZM439.9,1570.8L432.4,1580.8L435.6,1583.2L443.1,1573.2L439.9,1570.8ZM432,1582L432,1617L436,1617L436,1582L432,1582ZM432,1617C432,1618.857 432.737,1620.637 434.05,1621.95L436.879,1619.121C436.316,1618.559 436,1617.796 436,1617L432,1617ZM434.05,1621.95C435.363,1623.263 437.143,1624 439,1624L439,1620C438.204,1620 437.441,1619.684 436.879,1619.121L434.05,1621.95ZM439,1624L474,1624L474,1620L439,1620L439,1624ZM474,1624C475.857,1624 477.637,1623.263 478.95,1621.95L476.121,1619.121C475.559,1619.684 474.796,1620 474,1620L474,1624ZM478.95,1621.95C480.263,1620.637 481,1618.857 481,1617L477,1617C477,1617.796 476.684,1618.559 476.121,1619.121L478.95,1621.95ZM481,1617L481,1582L477,1582L477,1617L481,1617ZM480.6,1580.8L473.1,1570.8L469.9,1573.2L477.4,1583.2L480.6,1580.8ZM471.5,1570L441.5,1570L441.5,1574L471.5,1574L471.5,1570Z" fill="#FFFFFF"/>
<line x1="434" y1="1580" x2="479" y2="1580" stroke="#FFFFFF" stroke-width="2" stroke-miterlimit="3.999327" stroke-linecap="round" stroke-linejoin="round"/>
<path d="M468.5,1592C468.5,1590.895 467.605,1590 466.5,1590C465.395,1590 464.5,1590.895 464.5,1592L468.5,1592ZM456.5,1602L456.5,1604L456.5,1602ZM448.5,1592C448.5,1590.895 447.605,1590 446.5,1590C445.395,1590 444.5,1590.895 444.5,1592L448.5,1592ZM464.5,1592C464.5,1594.122 463.657,1596.157 462.157,1597.657L464.985,1600.485C467.236,1598.235 468.5,1595.183 468.5,1592L464.5,1592ZM462.157,1597.657C460.657,1599.157 458.622,1600 456.5,1600L456.5,1604C459.683,1604 462.735,1602.736 464.985,1600.485L462.157,1597.657ZM456.5,1600C454.378,1600 452.343,1599.157 450.843,1597.657L448.015,1600.485C450.265,1602.736 453.317,1604 456.5,1604L456.5,1600ZM450.843,1597.657C449.343,1596.157 448.5,1594.122 448.5,1592L444.5,1592C444.5,1595.183 445.764,1598.235 448.015,1600.485L450.843,1597.657Z" fill="#FFFFFF"/>
<path d="M58,1589.5L56.772,1587.921C56.285,1588.3 56,1588.883 56,1589.5L58,1589.5ZM80.5,1572L81.728,1570.421C81.006,1569.86 79.994,1569.86 79.272,1570.421L80.5,1572ZM103,1589.5L105,1589.5C105,1588.883 104.715,1588.3 104.228,1587.921L103,1589.5ZM58,1617L56,1617L58,1617ZM59.228,1591.079L81.728,1573.579L79.272,1570.421L56.772,1587.921L59.228,1591.079ZM79.272,1573.579L101.772,1591.079L104.228,1587.921L81.728,1570.421L79.272,1573.579ZM101,1589.5L101,1617L105,1617L105,1589.5L101,1589.5ZM101,1617C101,1617.796 100.684,1618.559 100.121,1619.121L102.95,1621.95C104.263,1620.637 105,1618.857 105,1617L101,1617ZM100.121,1619.121C99.559,1619.684 98.796,1620 98,1620L98,1624C99.857,1624 101.637,1623.263 102.95,1621.95L100.121,1619.121ZM98,1620L63,1620L63,1624L98,1624L98,1620ZM63,1620C62.204,1620 61.441,1619.684 60.879,1619.121L58.05,1621.95C59.363,1623.263 61.143,1624 63,1624L63,1620ZM60.879,1619.121C60.316,1618.559 60,1617.796 60,1617L56,1617C56,1618.857 56.737,1620.637 58.05,1621.95L60.879,1619.121ZM60,1617L60,1589.5L56,1589.5L56,1617L60,1617Z" fill="#838383"/>
<path d="M71,1622C71,1623.105 71.895,1624 73,1624C74.105,1624 75,1623.105 75,1622L71,1622ZM73,1597L73,1595C71.895,1595 71,1595.895 71,1597L73,1597ZM88,1597L90,1597C90,1595.895 89.105,1595 88,1595L88,1597ZM86,1622C86,1623.105 86.895,1624 88,1624C89.105,1624 90,1623.105 90,1622L86,1622ZM75,1622L75,1597L71,1597L71,1622L75,1622ZM73,1599L88,1599L88,1595L73,1595L73,1599ZM86,1597L86,1622L90,1622L90,1597L86,1597Z" fill="#838383"/>
<path d="M659.667,1622C659.667,1623.105 660.562,1624 661.667,1624C662.771,1624 663.667,1623.105 663.667,1622L659.667,1622ZM661.667,1616.444L663.667,1616.444L661.667,1616.444ZM650.556,1605.333L650.556,1603.333L650.556,1605.333ZM631.111,1605.333L631.111,1603.333L631.111,1605.333ZM620,1616.444L618,1616.444L620,1616.444ZM618,1622C618,1623.105 618.895,1624 620,1624C621.105,1624 622,1623.105 622,1622L618,1622ZM663.667,1622L663.667,1616.444L659.667,1616.444L659.667,1622L663.667,1622ZM663.667,1616.444C663.667,1612.967 662.285,1609.632 659.827,1607.174L656.998,1610.002C658.707,1611.711 659.667,1614.028 659.667,1616.444L663.667,1616.444ZM659.827,1607.174C657.368,1604.715 654.033,1603.333 650.556,1603.333L650.556,1607.333C652.972,1607.333 655.289,1608.293 656.998,1610.002L659.827,1607.174ZM650.556,1603.333L631.111,1603.333L631.111,1607.333L650.556,1607.333L650.556,1603.333ZM631.111,1603.333C627.634,1603.333 624.299,1604.715 621.84,1607.174L624.669,1610.002C626.377,1608.293 628.695,1607.333 631.111,1607.333L631.111,1603.333ZM621.84,1607.174C619.381,1609.632 618,1612.967 618,1616.444L622,1616.444C622,1614.028 622.96,1611.711 624.669,1610.002L621.84,1607.174ZM618,1616.444L618,1622L622,1622L622,1616.444L618,1616.444Z" fill="#838383"/>
<path d="M649.945,1583.111C649.945,1588.143 645.866,1592.222 640.834,1592.222L640.834,1596.222C648.075,1596.222 653.945,1590.352 653.945,1583.111L649.945,1583.111ZM640.834,1592.222C635.802,1592.222 631.723,1588.143 631.723,1583.111L627.723,1583.111C627.723,1590.352 633.593,1596.222 640.834,1596.222L640.834,1592.222ZM631.723,1583.111C631.723,1578.079 635.802,1574 640.834,1574L640.834,1570C633.593,1570 627.723,1575.87 627.723,1583.111L631.723,1583.111ZM640.834,1574C645.866,1574 649.945,1578.079 649.945,1583.111L653.945,1583.111C653.945,1575.87 648.075,1570 640.834,1570L640.834,1574Z" fill="#838383"/>
<g opacity="0.2">
<line x1="172" y1="1147" x2="660" y2="1147" stroke="#6E80B0" stroke-width="1" stroke-miterlimit="3.999327" stroke-linejoin="round"/>
</g>
<g opacity="0.2">
<line x1="172" y1="1297" x2="660" y2="1297" stroke="#6E80B0" stroke-width="1" stroke-miterlimit="3.999327" stroke-linejoin="round"/>
</g>
<g opacity="0.5">
<path d="M242,4L246,4L246,0L242,0L242,4ZM242,26L238,26L238,30L242,30L242,26ZM287,26L291,26L291,22L287,22L287,26ZM287,88L283,88L283,89.815L284.366,91.01L287,88ZM295,95L298.104,92.478L297.89,92.214L297.634,91.99L295,95ZM308,111L304.896,113.522L306.096,115L308,115L308,111ZM316,111L319.651,109.367L318.593,107L316,107L316,111ZM333,149L336.948,148.36L336.865,147.844L336.651,147.367L333,149ZM339,186L343,186L343,185.678L342.948,185.36L339,186ZM339,224L342.997,224.144L343,224.072L343,224L339,224ZM333,390L329.003,389.856L328.92,392.148L330.855,393.376L333,390ZM407,437L404.855,440.376L405.463,440.762L406.166,440.912L407,437ZM529,463L532.896,462.094L532.32,459.618L529.834,459.088L529,463ZM549,549L552.926,549.766L553.09,548.926L552.896,548.094L549,549ZM222,8L242,8L242,0L222,0L222,8ZM238,4L238,26L246,26L246,4L238,4ZM242,30L287,30L287,22L242,22L242,30ZM283,26L283,88L291,88L291,26L283,26ZM284.366,91.01L292.366,98.01L297.634,91.99L289.634,84.99L284.366,91.01ZM291.896,97.522L304.896,113.522L311.104,108.478L298.104,92.478L291.896,97.522ZM308,115L316,115L316,107L308,107L308,115ZM312.349,112.633L329.349,150.633L336.651,147.367L319.651,109.367L312.349,112.633ZM329.052,149.64L335.052,186.64L342.948,185.36L336.948,148.36L329.052,149.64ZM335,186L335,224L343,224L343,186L335,186ZM335.003,223.856L329.003,389.856L336.997,390.144L342.997,224.144L335.003,223.856ZM330.855,393.376L404.855,440.376L409.145,433.624L335.145,386.624L330.855,393.376ZM406.166,440.912L528.166,466.912L529.834,459.088L407.834,433.088L406.166,440.912ZM525.104,463.906L545.104,549.906L552.896,548.094L532.896,462.094L525.104,463.906ZM545.074,548.234L537.074,589.234L544.926,590.766L552.926,549.766L545.074,548.234Z" fill="#FF7000"/>
</g>
<defs>
<filter id="filterI39_7;25_72" x="387" y="1527" width="85" height="85" filterUnits="userSpaceOnUse" color-interpolation-filters="sRGB">
<feFlood flood-opacity="0" result="BackgroundImageFix"/>
<feColorMatrix in="SourceAlpha" type="matrix" values="0 0 0 0 0 0 0 0 0 0 0 0 0 0 0 0 0 0 127 0" result="hardAlpha"/>
<feMorphology radius="0" operator="dilate" in="SourceAlpha" result="0dropshadow"/>
<feOffset dx="0" dy="4"/>
<feGaussianBlur stdDeviation="7.5"/>
<feComposite in2="hardAlpha" operator="out"/>
<feColorMatrix type="matrix" values="0 0 0 0 0 0 0 0 0 0 0 0 0 0 0 0 0 0 0.1 0"/>
<feBlend mode="normal" in2="BackgroundImageFix" result="0dropshadow"/>
<feBlend mode="normal" in="SourceGraphic" in2="0dropshadow" result="shape"/>
</filter>
</defs>
</svg>
