<svg width="300" height="300" viewBox="0 0 300 300" fill="none" xmlns="http://www.w3.org/2000/svg" xmlns:xlink="http://www.w3.org/1999/xlink">
<path d="M293.414,153.293C293.414,226.315 240.064,286.877 170.216,298.127C160.65,257.563 124.445,228.901 82.769,228.901L20.958,228.901C7.653,206.821 0,180.951 0,153.293C0,72.347 65.558,6.711 146.476,6.587C227.34,6.463 293.414,72.43 293.414,153.293Z" fill="#6DC54A"/>
<path d="M130.706,232.962L96.315,156.508C94.28,151.984 96.298,146.667 100.822,144.632L215.502,93.046C220.026,91.011 225.343,93.029 227.378,97.553L261.769,174.006C263.804,178.53 261.786,183.847 257.262,185.882L142.582,237.468C138.058,239.504 132.741,237.486 130.706,232.962Z" fill="#97D57E"/>
<path d="M140.759,244.586L121.416,163.016C120.271,158.189 123.256,153.348 128.083,152.204L250.438,123.187C255.265,122.043 260.105,125.028 261.25,129.854L280.593,211.425C281.738,216.252 278.753,221.092 273.926,222.237L151.571,251.253C146.745,252.397 141.904,249.412 140.759,244.586L140.759,244.586Z" fill="#C0E6B1"/>
<path d="M62.275,0C57.315,0 53.293,4.022 53.293,8.982L53.293,246.658C53.293,254.426 43.754,258.096 38.507,252.368C31.911,245.17 26.025,237.31 20.958,228.902L20.958,53.892L19.162,53.892C16.516,53.892 14.371,51.747 14.371,49.102L14.371,28.743C14.371,26.097 16.516,23.952 19.162,23.952L20.958,23.952L20.958,8.982C20.958,4.022 24.98,0 29.94,0L62.275,0Z" fill="#453D83"/>
<path d="M170.659,53.892L170.659,65.868L171.258,65.868C173.903,65.868 176.048,68.013 176.048,70.659L176.048,91.018C176.048,93.663 173.903,95.808 171.258,95.808L170.659,95.808L170.659,297.604C170.499,297.794 170.375,297.938 170.216,298.126C162.561,299.36 154.708,300 146.707,300C109.519,300 75.563,286.164 49.706,263.358C46.292,260.346 44.311,256.03 44.311,251.478L44.311,8.982C44.311,4.022 48.333,0 53.293,0L161.677,0C166.637,0 170.659,4.022 170.659,8.982L170.659,23.952L171.258,23.952C173.903,23.952 176.048,26.097 176.048,28.743L176.048,49.102C176.048,51.747 173.903,53.892 171.258,53.892L170.659,53.892Z" fill="#5F55AF"/>
<path d="M153.293,65.868L153.293,254.491C153.293,259.452 149.272,263.472 144.311,263.472L49.837,263.472C45.795,259.918 41.952,256.143 38.323,252.168L38.323,65.868C38.323,60.908 42.345,56.886 47.305,56.886L144.311,56.886C149.272,56.886 153.293,60.908 153.293,65.868Z" fill="#FFF5F5"/>
<path d="M38.323,38.922C38.323,33.962 42.345,29.94 47.305,29.94L144.311,29.94C149.272,29.94 153.293,33.962 153.293,38.922L153.293,65.868L38.323,65.868Z" fill="#FFC14F"/>
<path d="M112.276,19.461L96.707,19.461C94.226,19.461 92.216,17.45 92.216,14.97C92.216,12.49 94.226,10.479 96.707,10.479L112.276,10.479C114.756,10.479 116.767,12.49 116.767,14.97C116.767,17.45 114.756,19.461 112.276,19.461ZM83.832,14.97C83.832,12.49 81.822,10.479 79.341,10.479C76.861,10.479 74.85,12.49 74.85,14.97C74.85,17.45 76.861,19.461 79.341,19.461C81.822,19.461 83.832,17.45 83.832,14.97ZM104.192,275.449L86.228,275.449C81.88,275.449 78.253,278.539 77.424,282.641C85.557,287.007 94.149,290.629 103.109,293.413L104.192,293.413C109.152,293.413 113.174,289.391 113.174,284.431C113.174,279.471 109.152,275.449 104.192,275.449Z" fill="#19305C"/>
<path d="M108.383,52.695L58.084,52.695C55.438,52.695 53.293,50.55 53.293,47.904C53.293,45.259 55.438,43.114 58.084,43.114L108.383,43.114C111.029,43.114 113.174,45.259 113.174,47.904C113.174,50.55 111.029,52.695 108.383,52.695Z" fill="#F29500"/>
<path d="M128.144,137.725L62.275,137.725C57.315,137.725 53.293,133.703 53.293,128.743L53.293,92.814C53.293,87.854 57.315,83.832 62.275,83.832L128.144,83.832C133.104,83.832 137.126,87.854 137.126,92.814L137.126,128.743C137.126,133.703 133.104,137.725 128.144,137.725Z" fill="#F44545"/>
<path d="M77.246,97.006C77.246,99.652 75.101,101.796 72.455,101.796L64.072,101.796C61.426,101.796 59.281,99.652 59.281,97.006C59.281,94.36 61.426,92.216 64.072,92.216L72.455,92.216C75.101,92.216 77.246,94.36 77.246,97.006ZM96.407,92.216L88.024,92.216C85.378,92.216 83.233,94.36 83.233,97.006C83.233,99.652 85.378,101.796 88.024,101.796L96.407,101.796C99.053,101.796 101.198,99.652 101.198,97.006C101.198,94.36 99.053,92.216 96.407,92.216ZM126.347,92.216L111.976,92.216C109.33,92.216 107.186,94.36 107.186,97.006C107.186,99.652 109.33,101.796 111.976,101.796L126.347,101.796C128.993,101.796 131.138,99.652 131.138,97.006C131.138,94.36 128.993,92.216 126.347,92.216Z" fill="#C50048"/>
<path d="M90.419,211.377L58.084,211.377C55.438,211.377 53.293,209.232 53.293,206.587C53.293,203.941 55.438,201.796 58.084,201.796L90.419,201.796C93.065,201.796 95.21,203.941 95.21,206.587C95.21,209.232 93.065,211.377 90.419,211.377ZM153.293,161.677L38.323,161.677L38.323,191.617L153.293,191.617L153.293,161.677ZM153.293,251.497L38.323,251.497L38.323,221.557L153.293,221.557L153.293,251.497Z" fill="#C8E2FD"/>
<path d="M108.383,181.437L58.084,181.437C55.438,181.437 53.293,179.292 53.293,176.647C53.293,174.001 55.438,171.856 58.084,171.856L108.383,171.856C111.029,171.856 113.174,174.001 113.174,176.647C113.174,179.292 111.029,181.437 108.383,181.437ZM107.186,236.527C107.186,233.881 105.041,231.736 102.395,231.736L58.084,231.736C55.438,231.736 53.293,233.881 53.293,236.527C53.293,239.172 55.438,241.317 58.084,241.317L102.395,241.317C105.041,241.317 107.186,239.172 107.186,236.527Z" fill="#86BEFB"/>
<path d="M274.85,288.623L143.114,288.623C133.192,288.623 125.15,280.58 125.15,270.659L125.15,178.443C125.15,168.522 133.192,160.479 143.114,160.479L274.85,160.479C284.772,160.479 292.814,168.522 292.814,178.443L292.814,270.659C292.814,280.58 284.772,288.623 274.85,288.623Z" fill="#FFC14F"/>
<path d="M163.717,288.623L143.114,288.623C133.192,288.623 125.15,280.58 125.15,270.659L125.15,178.443C125.15,168.522 133.192,160.479 143.114,160.479L163.717,160.479C153.795,160.479 145.753,168.522 145.753,178.443L145.753,270.659C145.753,280.58 153.795,288.623 163.717,288.623Z" fill="#FFA90B"/>
<path d="M300,224.551C300,234.472 291.957,242.515 282.036,242.515L220.958,242.515C211.037,242.515 202.994,234.472 202.994,224.551C202.994,214.629 211.037,206.587 220.958,206.587L282.036,206.587C291.957,206.587 300,214.629 300,224.551Z" fill="#F44545"/>
<path d="M238.922,242.515L220.958,242.515C211.037,242.515 202.994,234.472 202.994,224.551C202.994,214.63 211.037,206.587 220.958,206.587L238.922,206.587C229.001,206.587 220.958,214.63 220.958,224.551C220.958,234.472 229.001,242.515 238.922,242.515Z" fill="#C50048"/>
<path d="M101.198,122.755C101.198,127.715 97.176,131.737 92.216,131.737C87.255,131.737 83.234,127.715 83.234,122.755C83.234,117.794 87.255,113.772 92.216,113.772C97.176,113.772 101.198,117.794 101.198,122.755Z" fill="#FFE7C0"/>
<path d="M77.246,122.755C77.246,127.715 73.224,131.737 68.264,131.737C63.303,131.737 59.281,127.715 59.281,122.755C59.281,117.794 63.303,113.772 68.264,113.772C73.224,113.772 77.246,117.794 77.246,122.755ZM292.813,224.551C292.813,229.511 288.793,233.533 283.831,233.533C278.871,233.533 274.849,229.511 274.849,224.551C274.849,219.59 278.871,215.569 283.831,215.569C288.793,215.569 292.813,219.59 292.813,224.551Z" fill="#FFF36C"/>
</svg>
