<svg width="190" height="176" viewBox="0 0 190 176" fill="none" xmlns="http://www.w3.org/2000/svg" xmlns:xlink="http://www.w3.org/1999/xlink">
<path d="M171.243,136.135L134.054,136.135C133.337,136.135 132.65,135.85 132.143,135.344C131.636,134.837 131.351,134.149 131.351,133.432C131.351,132.716 131.636,132.028 132.143,131.521C132.65,131.014 133.337,130.73 134.054,130.73L171.243,130.73C171.96,130.73 172.647,131.014 173.154,131.521C173.661,132.028 173.946,132.716 173.946,133.432C173.946,134.149 173.661,134.837 173.154,135.344C172.647,135.85 171.96,136.135 171.243,136.135Z" fill="#6DC54A"/>
<path d="M88.378,136.135L59.189,136.135C55.031,136.149 51.004,134.68 47.831,131.992C44.658,129.305 42.546,125.574 41.875,121.47L23.548,11.514L2.108,11.514C1.391,11.514 0.704,11.229 0.197,10.722C-0.31,10.215 -0.595,9.528 -0.595,8.811C-0.595,8.094 -0.31,7.407 0.197,6.9C0.704,6.393 1.391,6.108 2.108,6.108L25.838,6.108C26.477,6.108 27.096,6.336 27.584,6.749C28.072,7.163 28.398,7.736 28.502,8.368L47.208,120.587C47.673,123.426 49.135,126.006 51.33,127.865C53.526,129.724 56.312,130.739 59.189,130.73L88.378,130.73C89.095,130.73 89.782,131.015 90.289,131.521C90.796,132.028 91.081,132.716 91.081,133.433C91.081,134.149 90.796,134.837 90.289,135.344C89.782,135.85 89.095,136.135 88.378,136.135Z" fill="#6DC54A"/>
<path d="M115.135,136.135L107.297,136.135C106.58,136.135 105.893,135.85 105.386,135.344C104.879,134.837 104.594,134.149 104.594,133.432C104.594,132.716 104.879,132.028 105.386,131.521C105.893,131.014 106.58,130.73 107.297,130.73L115.135,130.73C115.852,130.73 116.539,131.014 117.046,131.521C117.553,132.028 117.837,132.716 117.837,133.432C117.837,134.149 117.553,134.837 117.046,135.344C116.539,135.85 115.852,136.135 115.135,136.135Z" fill="#6DC54A"/>
<path d="M132.862,32.297L29.322,32.297C28.595,32.3 27.896,32.02 27.374,31.515C26.852,31.01 26.548,30.321 26.527,29.595C26.517,29.245 26.577,28.896 26.703,28.57C26.83,28.243 27.02,27.945 27.263,27.694C27.507,27.442 27.798,27.241 28.12,27.104C28.442,26.966 28.788,26.894 29.138,26.892L132.862,26.892C133.579,26.892 134.266,27.177 134.773,27.684C135.28,28.19 135.565,28.878 135.565,29.595C135.565,30.311 135.28,30.999 134.773,31.506C134.266,32.013 133.579,32.297 132.862,32.297L132.862,32.297Z" fill="#6DC54A"/>
<path d="M42.943,114.095C42.277,114.094 41.634,113.848 41.138,113.403C40.642,112.957 40.328,112.344 40.257,111.681C40.185,111.019 40.361,110.353 40.751,109.812C41.141,109.271 41.716,108.893 42.368,108.751L156.67,83.786L156.67,56.108C156.67,55.391 156.955,54.704 157.462,54.197C157.969,53.69 158.656,53.405 159.373,53.405C160.09,53.405 160.777,53.69 161.284,54.197C161.791,54.704 162.076,55.391 162.076,56.108L162.076,85.962C162.076,86.579 161.865,87.177 161.478,87.657C161.091,88.138 160.551,88.471 159.949,88.603L43.524,114.032C43.333,114.074 43.139,114.095 42.943,114.095L42.943,114.095Z" fill="#6DC54A"/>
<path d="M145.962,175.64C142.988,175.64 140.081,174.759 137.609,173.107C135.136,171.455 133.209,169.106 132.071,166.359C130.933,163.612 130.636,160.589 131.216,157.672C131.796,154.756 133.228,152.077 135.33,149.974C137.433,147.871 140.112,146.439 143.029,145.859C145.945,145.279 148.968,145.577 151.716,146.715C154.463,147.853 156.811,149.78 158.463,152.252C160.115,154.725 160.997,157.632 160.997,160.605C160.993,164.592 159.407,168.413 156.589,171.232C153.77,174.051 149.948,175.636 145.962,175.64ZM145.962,150.976C144.057,150.976 142.196,151.54 140.612,152.599C139.028,153.657 137.794,155.161 137.065,156.92C136.336,158.68 136.146,160.616 136.517,162.484C136.889,164.352 137.806,166.068 139.153,167.415C140.499,168.761 142.215,169.678 144.083,170.05C145.951,170.422 147.887,170.231 149.647,169.502C151.407,168.773 152.911,167.539 153.969,165.955C155.027,164.372 155.592,162.51 155.592,160.605C155.59,158.052 154.574,155.603 152.769,153.798C150.964,151.992 148.515,150.976 145.962,150.973L145.962,150.976Z" fill="#6DC54A"/>
<path d="M79.257,175.64C76.283,175.64 73.376,174.759 70.904,173.107C68.431,171.455 66.504,169.106 65.366,166.359C64.228,163.612 63.93,160.589 64.511,157.672C65.091,154.756 66.523,152.077 68.625,149.974C70.728,147.871 73.407,146.439 76.324,145.859C79.24,145.279 82.263,145.577 85.01,146.715C87.758,147.853 90.106,149.78 91.758,152.252C93.41,154.725 94.292,157.632 94.292,160.605C94.287,164.591 92.701,168.413 89.883,171.231C87.064,174.05 83.243,175.635 79.257,175.64ZM79.257,150.976C77.352,150.976 75.49,151.54 73.907,152.599C72.323,153.657 71.089,155.161 70.36,156.92C69.631,158.68 69.441,160.616 69.812,162.484C70.184,164.352 71.101,166.068 72.448,167.415C73.794,168.761 75.51,169.678 77.378,170.05C79.246,170.422 81.182,170.231 82.942,169.502C84.701,168.773 86.205,167.539 87.264,165.955C88.322,164.372 88.886,162.51 88.886,160.605C88.884,158.052 87.869,155.603 86.064,153.798C84.258,151.992 81.81,150.976 79.257,150.973L79.257,150.976Z" fill="#6DC54A"/>
<path d="M127.951,95.516L127.797,95.516C127.442,95.497 127.095,95.407 126.775,95.253C126.455,95.099 126.168,94.884 125.932,94.619C125.695,94.354 125.513,94.045 125.396,93.71C125.278,93.375 125.228,93.019 125.248,92.665L128.811,29.422C128.851,28.705 129.174,28.033 129.709,27.555C130.245,27.076 130.948,26.83 131.665,26.87C132.382,26.91 133.053,27.234 133.531,27.769C134.01,28.304 134.256,29.008 134.216,29.724L130.657,92.968C130.617,93.658 130.315,94.307 129.812,94.781C129.308,95.255 128.643,95.518 127.951,95.516Z" fill="#6DC54A"/>
<path d="M97.565,102.165C96.848,102.165 96.16,101.88 95.653,101.373C95.147,100.866 94.862,100.179 94.862,99.462L94.862,29.581C94.862,28.864 95.147,28.177 95.653,27.67C96.16,27.163 96.848,26.878 97.565,26.878C98.281,26.878 98.969,27.163 99.476,27.67C99.982,28.177 100.267,28.864 100.267,29.581L100.267,99.462C100.267,100.179 99.982,100.866 99.476,101.373C98.969,101.88 98.281,102.165 97.565,102.165Z" fill="#6DC54A"/>
<path d="M67.383,108.751C66.693,108.752 66.027,108.489 65.525,108.015C65.022,107.541 64.72,106.892 64.681,106.203L60.327,29.735C60.286,29.018 60.531,28.315 61.009,27.779C61.487,27.243 62.158,26.919 62.875,26.878C63.592,26.838 64.296,27.083 64.832,27.561C65.367,28.039 65.691,28.71 65.732,29.427L70.094,105.895C70.114,106.249 70.064,106.604 69.947,106.939C69.83,107.274 69.648,107.583 69.412,107.848C69.175,108.112 68.889,108.328 68.569,108.482C68.25,108.636 67.903,108.726 67.548,108.746L67.383,108.751Z" fill="#6DC54A"/>
<path d="M159.373,58.811C153.593,58.811 147.942,57.098 143.136,53.887C138.33,50.677 134.584,46.113 132.371,40.773C130.159,35.434 129.579,29.558 130.706,23.889C131.833,18.22 134.616,13.012 138.702,8.925C142.789,4.837 147.995,2.053 153.664,0.925C159.333,-0.204 165.209,0.374 170.549,2.585C175.89,4.796 180.454,8.541 183.666,13.346C186.878,18.151 188.593,23.801 188.594,29.581C188.586,37.33 185.505,44.758 180.027,50.238C174.549,55.718 167.121,58.801 159.373,58.811L159.373,58.811ZM159.373,5.77C154.661,5.77 150.055,7.166 146.138,9.784C142.22,12.401 139.167,16.121 137.364,20.474C135.561,24.827 135.089,29.617 136.009,34.237C136.928,38.858 139.197,43.103 142.529,46.434C145.861,49.765 150.106,52.033 154.727,52.951C159.348,53.87 164.138,53.397 168.49,51.593C172.842,49.789 176.562,46.735 179.178,42.817C181.795,38.899 183.19,34.293 183.189,29.581C183.181,23.267 180.669,17.214 176.205,12.749C171.74,8.284 165.687,5.773 159.373,5.765L159.373,5.77Z" fill="#6DC54A"/>
<path d="M155.683,39.203C154.967,39.203 154.279,38.918 153.773,38.411L147.31,31.949C147.052,31.699 146.846,31.401 146.705,31.071C146.563,30.742 146.489,30.387 146.485,30.028C146.482,29.669 146.551,29.313 146.687,28.981C146.823,28.649 147.023,28.347 147.277,28.094C147.531,27.84 147.832,27.639 148.165,27.503C148.497,27.367 148.853,27.299 149.212,27.302C149.57,27.305 149.925,27.38 150.255,27.521C150.585,27.663 150.883,27.869 151.132,28.127L155.683,32.678L167.611,20.751C167.86,20.493 168.158,20.287 168.488,20.146C168.818,20.004 169.172,19.929 169.531,19.926C169.89,19.923 170.246,19.992 170.578,20.127C170.91,20.263 171.212,20.464 171.466,20.718C171.719,20.972 171.92,21.273 172.056,21.606C172.192,21.938 172.26,22.294 172.257,22.652C172.254,23.011 172.179,23.366 172.038,23.696C171.896,24.025 171.69,24.324 171.432,24.573L157.594,38.411C157.344,38.663 157.046,38.862 156.718,38.998C156.39,39.134 156.038,39.204 155.683,39.203L155.683,39.203Z" fill="#6DC54A"/>
</svg>
