<svg width="300" height="300" viewBox="0 0 300 300" fill="none" xmlns="http://www.w3.org/2000/svg" xmlns:xlink="http://www.w3.org/1999/xlink">
<path d="M299.997,77.591C299.972,69.264 293.38,62.441 285.059,62.13C284.542,61.049 284.025,59.937 283.471,58.882C290.368,53.853 291.882,44.186 286.853,37.289C281.824,30.393 272.156,28.878 265.259,33.908C264.932,34.146 264.615,34.397 264.308,34.661C263.589,34.009 262.896,33.332 262.156,32.706C263.223,30.584 263.782,28.243 263.791,25.868C263.81,17.316 256.892,10.367 248.34,10.347C243.324,10.336 238.614,12.754 235.7,16.837C233,15.779 230.241,14.843 227.424,14.029C226.653,5.544 219.15,-0.707 210.666,0.065C204.557,0.621 199.356,4.744 197.425,10.568C195.144,10.671 192.873,10.806 190.639,11.085C188.175,2.901 179.543,-1.737 171.359,0.727C164.829,2.693 160.355,8.702 160.344,15.523C160.365,16.979 160.593,18.424 161.022,19.816L160.799,19.924C154.646,13.96 144.822,14.113 138.858,20.266C136.058,23.155 134.49,27.018 134.483,31.04C134.483,31.376 134.56,31.691 134.581,32.022C132.895,31.388 131.111,31.056 129.31,31.04C120.769,31.011 113.822,37.911 113.793,46.453C113.786,48.467 114.173,50.463 114.931,52.329C106.702,54.505 101.794,62.941 103.97,71.17C105.055,75.275 107.786,78.751 111.518,80.777C109.624,88.187 108.651,95.804 108.621,103.452L294.824,103.452C294.788,98.939 294.425,94.434 293.738,89.973C297.667,87.069 299.989,82.476 299.997,77.591Z" fill="#FFD884"/>
<path d="M277.316,300L126.129,300L103.449,103.452L299.997,103.452L277.316,300Z" fill="#E3472C"/>
<path d="M186.206,300L181.033,103.452L139.655,103.452L155.172,300L186.206,300Z" fill="#F6F6E7"/>
<path d="M185.068,256.827L186.206,300L217.24,300L217.804,278.633C206.234,272.402 195.275,265.102 185.068,256.827Z" fill="#DD1C4B"/>
<path d="M113.023,142.948L103.449,103.452L126.129,300L155.172,300L148.769,218.883C131.868,196.232 119.71,170.406 113.023,142.948Z" fill="#DD1C4B"/>
<path d="M248.879,292.319L248.274,300L277.316,300C267.67,298.104 258.168,295.538 248.879,292.319Z" fill="#DD1C4B"/>
<path d="M148.769,218.883L155.172,300L186.206,300L185.068,256.827C171.434,245.741 159.239,232.994 148.769,218.883Z" fill="#FFD884"/>
<path d="M263.791,103.452L222.412,103.452L217.804,278.633C227.776,284.026 238.168,288.603 248.879,292.319L263.791,103.452Z" fill="#F6F6E7"/>
<path d="M217.804,278.633L217.24,300L248.274,300L248.879,292.319C238.168,288.602 227.776,284.025 217.804,278.633Z" fill="#FFD884"/>
<path d="M108.621,144.831L96.684,300L17.113,300L5.175,144.831Z" fill="#E3472C"/>
<path d="M5.175,144.831L17.113,300L36.209,300L36.209,144.831L5.175,144.831L5.175,144.831Z" fill="#DD1C4B"/>
<path d="M0.003,124.141L113.793,124.141L113.793,144.831L0.003,144.831L0.003,124.141L0.003,124.141Z" fill="#F6F6E7"/>
<path d="M0.003,124.141L20.692,124.141L20.692,144.831L0.003,144.831L0.003,124.141L0.003,124.141Z" fill="#FFD884"/>
<path d="M84.068,200.438C76.788,198.012 68.776,199.384 62.717,204.095L47.588,215.852C38.387,223.007 25.284,222.13 17.118,213.814L9.877,206.521L12.716,243.389L39.002,246.467C46.895,247.612 54.817,244.576 59.924,238.449C66.071,231.071 76.162,228.299 85.217,231.503L101.514,237.265L103.94,205.714L84.068,200.438Z" fill="#F6F6E7"/>
<path d="M67.243,124.141L51.726,56.901L0.003,56.901L0.003,77.59L36.209,77.59L46.553,124.141L67.243,124.141Z" fill="#2BB3CE"/>
<path d="M41.381,67.246L54.508,124.141L67.243,124.141L51.726,56.901L0.003,56.901L0.003,67.246L41.381,67.246L41.381,67.246Z" fill="#88D0EF"/>
<path d="M36.209,220.517C29.153,221.354 22.108,218.87 17.138,213.793L9.897,206.5L12.737,243.368L36.209,246.136L36.209,220.517L36.209,220.517Z" fill="#FFD884"/>
</svg>
