<svg width="300" height="300" viewBox="0 0 300 300" fill="none" xmlns="http://www.w3.org/2000/svg" xmlns:xlink="http://www.w3.org/1999/xlink">
<path d="M150,300C232.842,300 300,232.842 300,150C300,67.157 232.842,0 150,0C67.157,0 0,67.157 0,150C0,232.842 67.157,300 150,300Z" fill="#FFA037"/>
<path d="M150,251.786C206.215,251.786 251.786,206.215 251.786,150C251.786,93.785 206.215,48.214 150,48.214C93.785,48.214 48.214,93.785 48.214,150C48.214,206.215 93.785,251.786 150,251.786Z" fill="#FFC850"/>
<path d="M69.643,150C69.643,79.15 118.778,19.814 184.821,4.107C173.642,1.448 161.992,0 150,0C67.157,0 0,67.157 0,150C0,232.842 67.157,300 150,300C161.994,300 173.642,298.552 184.822,295.894C118.778,280.186 69.643,220.848 69.643,150Z" fill="#FF8C32"/>
<path d="M97.777,237.249C80.127,212.66 69.643,182.583 69.643,150C69.643,117.417 80.127,87.34 97.776,62.751C68.124,80.54 48.214,112.904 48.214,150C48.214,187.096 68.124,219.46 97.777,237.249Z" fill="#FFB23C"/>
<path d="M252.267,85.233C250.174,83.14 246.783,83.14 244.691,85.233L214.109,115.812C211.867,118.054 208.232,118.054 205.99,115.812L205.238,115.06C202.996,112.819 202.996,109.183 205.238,106.941L235.727,76.452C237.82,74.359 237.82,70.969 235.727,68.877C233.635,66.785 230.244,66.785 228.152,68.877L197.663,99.366C195.421,101.608 191.785,101.608 189.543,99.366C187.301,97.124 187.301,93.489 189.543,91.247L220.124,60.667C222.216,58.574 222.216,55.184 220.124,53.092C218.032,50.999 214.641,50.999 212.548,53.092L179.877,85.76C174.808,90.827 171.815,97.277 171.663,103.519L171.503,117.477C171.486,118.953 170.86,120.357 169.774,121.357L68.766,214.307C62.821,220.252 62.821,229.892 68.766,235.838C74.712,241.783 84.352,241.783 90.298,235.838L183.086,135.008C184.11,133.895 185.557,133.267 187.07,133.278L201.39,133.39C201.499,133.39 201.604,133.393 201.714,133.393C208.05,133.393 214.552,130.52 219.595,125.48L252.267,92.809C254.359,90.716 254.359,87.325 252.267,85.233Z" fill="#FFFFFF"/>
<path d="M158.017,132.174L115.324,171.462L124.872,181.01C127.803,183.941 131.418,185.894 135.329,186.903L172.43,146.586L158.017,132.174Z" fill="#FAF0C3"/>
<path d="M76.647,65.957L225.436,214.746C231.382,220.692 231.382,230.332 225.436,236.278C219.491,242.223 209.85,242.223 203.905,236.278L167.78,200.153C164.081,196.453 163.258,190.965 165.314,186.471C166.397,184.104 166.219,181.365 164.378,179.524L158.287,173.434C155.909,171.056 152.053,171.056 149.675,173.434C144.918,178.191 137.206,178.191 132.449,173.434L91.338,132.323C60.817,101.802 63.696,78.567 67.912,67.682C69.29,64.124 73.949,63.258 76.647,65.957Z" fill="#FFFFFF"/>
</svg>
