<svg width="26" height="26" viewBox="0 0 26 26" fill="none" xmlns="http://www.w3.org/2000/svg" xmlns:xlink="http://www.w3.org/1999/xlink">
<path d="M25.434,9.474C25.355,9.242 25.211,9.039 25.018,8.889C24.825,8.739 24.592,8.648 24.349,8.629L17.223,8.062L14.139,1.236C14.041,1.016 13.881,0.83 13.679,0.699C13.477,0.567 13.241,0.498 13,0.498C12.76,0.497 12.524,0.567 12.322,0.698C12.12,0.829 11.96,1.015 11.861,1.235L8.778,8.062L1.651,8.629C1.412,8.648 1.183,8.735 0.992,8.881C0.801,9.027 0.656,9.224 0.574,9.45C0.493,9.676 0.478,9.921 0.532,10.155C0.585,10.389 0.706,10.602 0.878,10.77L6.144,15.904L4.281,23.969C4.225,24.213 4.243,24.468 4.333,24.702C4.424,24.936 4.582,25.137 4.789,25.279C4.995,25.422 5.239,25.499 5.49,25.501C5.74,25.503 5.985,25.429 6.194,25.29L13,20.753L19.806,25.29C20.019,25.431 20.27,25.504 20.526,25.499C20.781,25.493 21.029,25.409 21.236,25.259C21.442,25.108 21.598,24.898 21.681,24.656C21.764,24.415 21.772,24.154 21.703,23.908L19.416,15.907L25.086,10.805C25.458,10.47 25.594,9.947 25.434,9.474L25.434,9.474Z" fill="#FFB200"/>
</svg>
