<svg width="50" height="52" viewBox="0 0 50 52" fill="none" xmlns="http://www.w3.org/2000/svg" xmlns:xlink="http://www.w3.org/1999/xlink">
<path d="M24,51C10.193,51 -1,39.807 -1,26C-1,12.193 10.193,1 24,1C37.808,1 49,12.193 49,26C49,39.807 37.808,51 24,51ZM11.5,41.613L11.5,28.5C11.5,27.174 12.027,25.902 12.964,24.964C13.902,24.027 15.174,23.5 16.5,23.5L31.5,23.5C32.826,23.5 34.098,24.027 35.036,24.964C35.973,25.902 36.5,27.174 36.5,28.5L36.5,41.613C39.735,39.023 42.085,35.492 43.226,31.509C44.368,27.525 44.244,23.286 42.871,19.376C41.499,15.466 38.946,12.079 35.566,9.683C32.185,7.287 28.144,6 24,6C19.856,6 15.815,7.287 12.434,9.683C9.054,12.079 6.501,15.466 5.129,19.376C3.756,23.286 3.632,27.525 4.774,31.509C5.915,35.492 8.265,39.023 11.5,41.613L11.5,41.613Z" fill="#838383"/>
</svg>
