<svg width="16" height="26" viewBox="0 0 16 26" fill="none" xmlns="http://www.w3.org/2000/svg" xmlns:xlink="http://www.w3.org/1999/xlink">
<path d="M14.676,0.489C14.521,0.334 14.337,0.211 14.135,0.127C13.932,0.043 13.715,-0.001 13.496,-0.001C13.277,-0.001 13.06,0.043 12.857,0.127C12.655,0.211 12.471,0.334 12.316,0.489L1.236,11.569C1.112,11.692 1.014,11.839 0.947,12C0.881,12.161 0.846,12.334 0.846,12.509C0.846,12.684 0.881,12.856 0.947,13.018C1.014,13.179 1.112,13.326 1.236,13.449L12.316,24.529C12.969,25.182 14.023,25.182 14.676,24.529C15.329,23.876 15.329,22.822 14.676,22.169L5.023,12.502L14.689,2.836C15.329,2.196 15.329,1.129 14.676,0.489Z" transform="rotate(-180 8.007 12.509)" fill="#FFFFFF" stroke="#FFFFFF" stroke-width="0.4" stroke-miterlimit="3.999327"/>
</svg>
