<svg width="40" height="40" viewBox="0 0 40 40" fill="none" xmlns="http://www.w3.org/2000/svg" xmlns:xlink="http://www.w3.org/1999/xlink">
<path d="M19.98,0C8.94,0 0,8.96 0,20C0,31.04 8.94,40 19.98,40C31.04,40 40,31.04 40,20C40,8.96 31.04,0 19.98,0ZM20,36C11.16,36 4,28.84 4,20C4,11.16 11.16,4 20,4C28.84,4 36,11.16 36,20C36,28.84 28.84,36 20,36ZM19.56,10L19.44,10C18.64,10 18,10.64 18,11.44L18,20.88C18,21.58 18.36,22.24 18.98,22.6L27.28,27.58C27.96,27.98 28.84,27.78 29.24,27.1C29.34,26.938 29.407,26.758 29.436,26.569C29.466,26.381 29.457,26.189 29.41,26.004C29.363,25.819 29.28,25.646 29.165,25.494C29.05,25.342 28.905,25.215 28.74,25.12L21,20.52L21,11.44C21,10.64 20.36,10 19.56,10L19.56,10Z" fill="#373737"/>
</svg>
