<svg width="28" height="28" viewBox="0 0 28 28" fill="none" xmlns="http://www.w3.org/2000/svg" xmlns:xlink="http://www.w3.org/1999/xlink">
<path d="M16,2.571C16,1.467 15.104,0.571 14,0.571C12.895,0.571 12,1.467 12,2.571L16,2.571ZM12,25.429C12,26.533 12.895,27.429 14,27.429C15.104,27.429 16,26.533 16,25.429L12,25.429ZM2.571,12C1.467,12 0.571,12.895 0.571,14C0.571,15.105 1.467,16 2.571,16L2.571,12ZM25.428,16C26.533,16 27.428,15.105 27.428,14C27.428,12.895 26.533,12 25.428,12L25.428,16ZM12,2.571L12,25.429L16,25.429L16,2.571L12,2.571ZM16,25.429L16,2.571L12,2.571L12,25.429L16,25.429ZM2.571,16L25.428,16L25.428,12L2.571,12L2.571,16Z" fill="#838383"/>
</svg>
