<svg width="24" height="24" viewBox="0 0 24 24" fill="none" xmlns="http://www.w3.org/2000/svg" xmlns:xlink="http://www.w3.org/1999/xlink">
<path d="M14,2C14,0.895 13.105,0 12,0C10.895,0 10,0.895 10,2L14,2ZM10,22C10,23.105 10.895,24 12,24C13.105,24 14,23.105 14,22L10,22ZM2,10C0.895,10 0,10.895 0,12C0,13.105 0.895,14 2,14L2,10ZM22,14C23.105,14 24,13.105 24,12C24,10.895 23.105,10 22,10L22,14ZM10,2L10,22L14,22L14,2L10,2ZM14,22L14,2L10,2L10,22L14,22ZM2,14L22,14L22,10L2,10L2,14Z" fill="#838383"/>
</svg>
