<svg width="20" height="20" viewBox="0 0 20 20" fill="none" xmlns="http://www.w3.org/2000/svg" xmlns:xlink="http://www.w3.org/1999/xlink">
<path d="M0.076,9.019C0.076,7.22 0.522,5.556 1.413,4.028C2.304,2.5 3.511,1.293 5.035,0.406C6.559,-0.481 8.216,-0.924 10.007,-0.924C11.35,-0.924 12.632,-0.661 13.855,-0.136C15.077,0.389 16.132,1.095 17.019,1.982C17.905,2.868 18.611,3.925 19.136,5.152C19.662,6.379 19.924,7.668 19.924,9.019C19.924,10.362 19.662,11.647 19.136,12.874C18.611,14.101 17.905,15.155 17.019,16.038C16.132,16.92 15.077,17.622 13.855,18.143C12.632,18.664 11.35,18.924 10.007,18.924C8.655,18.924 7.366,18.661 6.139,18.136C4.912,17.611 3.856,16.905 2.969,16.018C2.082,15.132 1.378,14.079 0.857,12.861C0.337,11.643 0.076,10.362 0.076,9.019ZM2.259,9.019C2.259,11.111 3.02,12.928 4.544,14.469C6.068,15.993 7.889,16.755 10.007,16.755C11.401,16.755 12.693,16.408 13.881,15.715C15.069,15.022 16.011,14.081 16.709,12.893C17.406,11.705 17.755,10.414 17.755,9.019C17.755,7.625 17.406,6.331 16.709,5.139C16.011,3.947 15.069,3.004 13.881,2.311C12.693,1.618 11.401,1.271 10.007,1.271C8.612,1.271 7.321,1.618 6.133,2.311C4.945,3.004 4.002,3.947 3.305,5.139C2.607,6.331 2.259,7.625 2.259,9.019ZM9.245,9.019L9.245,3.144C9.245,2.937 9.316,2.763 9.458,2.621C9.6,2.479 9.774,2.408 9.981,2.408C10.187,2.408 10.362,2.479 10.504,2.621C10.646,2.763 10.717,2.937 10.717,3.144L10.717,7.741L13.17,6.359C13.343,6.256 13.528,6.23 13.726,6.282C13.924,6.333 14.07,6.454 14.165,6.643C14.268,6.815 14.292,7.001 14.236,7.199C14.18,7.397 14.066,7.547 13.894,7.651L10.472,9.562C10.325,9.691 10.162,9.755 9.981,9.755C9.774,9.755 9.6,9.684 9.458,9.542C9.316,9.4 9.245,9.226 9.245,9.019Z" fill="#838383"/>
</svg>
