<svg width="20" height="20" viewBox="0 0 20 20" fill="none" xmlns="http://www.w3.org/2000/svg" xmlns:xlink="http://www.w3.org/1999/xlink">
<path d="M19.947,6.679C19.884,6.494 19.768,6.331 19.614,6.211C19.46,6.091 19.274,6.019 19.079,6.003L13.378,5.55L10.911,0.089C10.832,-0.087 10.705,-0.236 10.543,-0.341C10.381,-0.446 10.193,-0.502 10,-0.502C9.808,-0.502 9.619,-0.446 9.457,-0.342C9.296,-0.237 9.168,-0.088 9.089,0.088L6.622,5.55L0.921,6.003C0.729,6.018 0.546,6.088 0.394,6.205C0.241,6.321 0.125,6.479 0.06,6.66C-0.006,6.841 -0.018,7.036 0.025,7.224C0.068,7.411 0.164,7.582 0.302,7.716L4.515,11.823L3.025,18.275C2.98,18.47 2.994,18.675 3.067,18.862C3.139,19.049 3.266,19.209 3.431,19.323C3.596,19.437 3.791,19.499 3.992,19.501C4.192,19.502 4.388,19.443 4.555,19.332L10,15.702L15.445,19.332C15.615,19.445 15.816,19.503 16.021,19.499C16.225,19.494 16.423,19.427 16.588,19.307C16.754,19.186 16.878,19.018 16.945,18.825C17.012,18.632 17.018,18.423 16.962,18.226L15.133,11.826L19.669,7.744C19.966,7.476 20.075,7.058 19.947,6.679L19.947,6.679Z" fill="#FFB200"/>
</svg>
