<svg width="34" height="34" viewBox="0 0 34 34" fill="none" xmlns="http://www.w3.org/2000/svg" xmlns:xlink="http://www.w3.org/1999/xlink">
<path d="M26.667,15.333C26.667,21.593 21.593,26.667 15.333,26.667L15.333,30.667C23.802,30.667 30.667,23.802 30.667,15.333L26.667,15.333ZM15.333,26.667C9.074,26.667 4,21.593 4,15.333L0,15.333C0,23.802 6.865,30.667 15.333,30.667L15.333,26.667ZM4,15.333C4,9.074 9.074,4 15.333,4L15.333,0C6.865,0 0,6.865 0,15.333L4,15.333ZM15.333,4C21.593,4 26.667,9.074 26.667,15.333L30.667,15.333C30.667,6.865 23.802,0 15.333,0L15.333,4Z" fill="#838383"/>
<path d="M30.586,33.414C31.367,34.195 32.633,34.195 33.414,33.414C34.195,32.633 34.195,31.367 33.414,30.586L30.586,33.414ZM26.164,23.336C25.383,22.555 24.117,22.555 23.336,23.336C22.555,24.117 22.555,25.383 23.336,26.164L26.164,23.336ZM33.414,30.586L26.164,23.336L23.336,26.164L30.586,33.414L33.414,30.586Z" fill="#838383"/>
</svg>
