<svg width="200" height="200" viewBox="0 0 200 200" fill="none" xmlns="http://www.w3.org/2000/svg" xmlns:xlink="http://www.w3.org/1999/xlink">
<path d="M195.244,113.855C193.126,113.462 191.084,114.861 190.69,116.982C182.586,160.561 144.479,192.188 100.077,192.188L100.068,192.188C49.235,192.183 7.875,150.823 7.871,99.991C7.868,75.366 17.455,52.218 34.866,34.807C52.275,17.398 75.418,7.813 100.041,7.813L100.05,7.813C110.014,7.813 119.745,9.378 129.064,12.471C124.225,17.173 121.237,23.943 121.237,31.583C121.237,57.915 157.374,75.414 158.912,76.146C159.437,76.396 160.011,76.525 160.591,76.525C160.63,76.525 160.669,76.525 160.709,76.524L160.866,76.519C161.409,76.503 161.943,76.373 162.433,76.139C163.258,75.745 174.079,70.486 183.887,61.602C187.013,68.411 189.29,75.571 190.671,82.948C191.022,84.826 192.662,86.136 194.505,86.136C194.744,86.136 194.986,86.114 195.229,86.069C197.35,85.672 198.747,83.631 198.35,81.511C196.669,72.533 193.767,63.852 189.713,55.672C195.521,48.955 199.942,40.811 199.942,31.583C199.942,17.053 189.136,5.671 175.34,5.671C169.792,5.671 164.758,7.474 160.589,10.922C157.211,8.133 152.377,5.671 145.839,5.671C142.845,5.671 139.991,6.207 137.359,7.196C125.499,2.422 112.953,0.001 100.05,0L100.04,0C73.333,0 48.225,10.4 29.341,29.283C10.455,48.169 0.056,73.28 0.058,99.991C0.06,126.702 10.465,151.815 29.354,170.704C48.243,189.593 73.356,199.998 100.067,200L100.077,200C148.237,200 189.579,165.685 198.37,118.41C198.765,116.289 197.365,114.25 195.244,113.855L195.244,113.855ZM157.65,18.931C158.399,19.786 159.497,20.264 160.632,20.25C161.754,20.241 162.83,19.736 163.565,18.889C163.598,18.855 163.631,18.82 163.663,18.784C166.801,15.267 170.729,13.484 175.339,13.484C184.754,13.484 192.129,21.434 192.129,31.583C192.129,50.236 167.267,64.743 160.659,68.269C154.008,64.745 129.049,50.271 129.049,31.583C129.049,21.434 136.424,13.484 145.839,13.484C150.514,13.484 154.488,15.316 157.65,18.931L157.65,18.931Z" fill="#373737"/>
<path d="M198.96,98.988C198.32,97.453 196.736,96.467 195.074,96.587C193.451,96.704 192.052,97.853 191.601,99.412C191.15,100.974 191.754,102.716 193.08,103.659C194.397,104.594 196.176,104.621 197.523,103.731C199.063,102.712 199.656,100.686 198.96,98.988Z" fill="#373737"/>
<path d="M124.442,88.068L131.22,81.291L137.997,88.068C139.522,89.594 141.995,89.594 143.521,88.068C145.047,86.543 145.047,84.069 143.521,82.544L133.982,73.004C133.25,72.271 132.256,71.86 131.22,71.86C130.184,71.86 129.191,72.272 128.458,73.004L118.918,82.544C117.393,84.069 117.393,86.543 118.918,88.068C119.681,88.831 120.681,89.213 121.681,89.213C122.68,89.212 123.679,88.83 124.442,88.068L124.442,88.068Z" fill="#373737"/>
<path d="M61.887,88.068L68.664,81.291L75.442,88.068C76.205,88.831 77.204,89.212 78.204,89.212C79.203,89.212 80.203,88.831 80.966,88.068C82.491,86.543 82.491,84.069 80.966,82.543L71.426,73.004C69.901,71.479 67.428,71.479 65.902,73.004L56.363,82.543C54.837,84.069 54.837,86.542 56.363,88.068C57.888,89.593 60.362,89.593 61.887,88.068Z" fill="#373737"/>
<path d="M41.567,105.626L41.567,110.302C41.567,116.091 42.413,121.809 44.082,127.299C44.092,127.331 44.102,127.364 44.113,127.396C48.559,141.934 58.352,154.007 71.698,161.4C71.701,161.402 71.705,161.404 71.708,161.406C80.297,166.163 90.06,168.677 99.942,168.677C109.824,168.677 119.587,166.162 128.176,161.406C128.178,161.405 128.179,161.404 128.18,161.403C130.547,160.093 132.846,158.601 135.017,156.967C144.829,149.58 152.196,139.082 155.77,127.397C155.781,127.365 155.792,127.332 155.802,127.299C157.471,121.809 158.317,116.091 158.317,110.301L158.317,105.625C158.317,103.468 156.568,101.719 154.41,101.719L45.474,101.719C43.316,101.72 41.567,103.469 41.567,105.626L41.567,105.626ZM99.942,160.865C92.885,160.865 85.901,159.386 79.501,156.561C84.613,150.688 91.987,147.285 99.942,147.285C107.19,147.285 114.007,150.109 119.138,155.236C119.567,155.665 119.981,156.107 120.379,156.563C113.981,159.387 106.997,160.865 99.942,160.865L99.942,160.865ZM130.319,150.726C129.367,151.442 128.388,152.127 127.386,152.775C126.541,151.705 125.631,150.681 124.661,149.711C118.054,143.109 109.275,139.473 99.942,139.473C89.099,139.473 79.095,144.381 72.497,152.772C64.053,147.286 57.342,139.295 53.397,130.072L146.487,130.072C143.021,138.183 137.406,145.39 130.319,150.726L130.319,150.726ZM49.38,109.532L150.504,109.532L150.504,110.302C150.504,114.353 150.027,118.362 149.083,122.257L50.801,122.257C49.857,118.362 49.38,114.352 49.38,110.302L49.38,109.532Z" fill="#373737"/>
</svg>
