<svg width="56" height="58" viewBox="0 0 56 58" fill="none" xmlns="http://www.w3.org/2000/svg" xmlns:xlink="http://www.w3.org/1999/xlink">
<path d="M37.734,46.75C37.734,45.645 36.839,44.75 35.734,44.75C34.63,44.75 33.734,45.645 33.734,46.75L37.734,46.75ZM9.141,46.75C9.141,45.645 8.245,44.75 7.141,44.75C6.036,44.75 5.141,45.645 5.141,46.75L9.141,46.75ZM33.734,46.75C33.734,48.449 33.237,49.846 32.466,50.779C31.725,51.673 30.651,52.25 29.172,52.25L29.172,56.25C31.835,56.25 34.042,55.148 35.548,53.328C37.021,51.547 37.734,49.194 37.734,46.75L33.734,46.75ZM29.172,52.25L13.703,52.25L13.703,56.25L29.172,56.25L29.172,52.25ZM13.703,52.25C12.224,52.25 11.15,51.673 10.409,50.779C9.638,49.846 9.141,48.449 9.141,46.75L5.141,46.75C5.141,49.194 5.854,51.547 7.327,53.328C8.833,55.148 11.04,56.25 13.703,56.25L13.703,52.25Z" fill="#FFFFFF"/>
<path d="M37.375,35.375C36.27,35.375 35.375,36.27 35.375,37.375C35.375,38.48 36.27,39.375 37.375,39.375L37.375,35.375ZM5.5,39.375C6.605,39.375 7.5,38.48 7.5,37.375C7.5,36.27 6.605,35.375 5.5,35.375L5.5,39.375ZM37.375,39.375C37.948,39.375 39.125,40.139 39.125,42.063L43.125,42.063C43.125,38.809 40.944,35.375 37.375,35.375L37.375,39.375ZM39.125,42.063C39.125,43.986 37.948,44.75 37.375,44.75L37.375,48.75C40.944,48.75 43.125,45.316 43.125,42.063L39.125,42.063ZM37.375,44.75L5.5,44.75L5.5,48.75L37.375,48.75L37.375,44.75ZM5.5,44.75C4.927,44.75 3.75,43.986 3.75,42.063L-0.25,42.063C-0.25,45.316 1.931,48.75 5.5,48.75L5.5,44.75ZM3.75,42.063C3.75,40.139 4.927,39.375 5.5,39.375L5.5,35.375C1.931,35.375 -0.25,38.809 -0.25,42.063L3.75,42.063Z" fill="#FFFFFF"/>
<path d="M19.013,37.375L19.013,35.375L19.012,35.375L19.013,37.375ZM18.351,37.649L16.937,36.234L16.937,36.235L18.351,37.649ZM15.207,40.793L13.792,39.379L13.792,39.38L15.207,40.793ZM14.543,40.793L15.958,39.38L15.958,39.379L14.543,40.793ZM11.399,37.649L12.813,36.235L12.813,36.234L11.399,37.649ZM10.737,37.375L10.738,35.375L10.737,35.375L10.737,37.375ZM38.312,35.375L19.013,35.375L19.013,39.375L38.312,39.375L38.312,35.375ZM19.012,35.375C18.234,35.375 17.488,35.684 16.937,36.234L19.764,39.064C19.565,39.263 19.295,39.375 19.014,39.375L19.012,35.375ZM16.937,36.235L13.792,39.379L16.621,42.208L19.765,39.063L16.937,36.235ZM13.792,39.38C13.934,39.238 14.103,39.125 14.289,39.048L15.82,42.743C16.12,42.618 16.392,42.436 16.622,42.207L13.792,39.38ZM14.289,39.048C14.475,38.971 14.674,38.931 14.875,38.931L14.875,42.931C15.199,42.931 15.521,42.867 15.82,42.743L14.289,39.048ZM14.875,38.931C15.076,38.931 15.275,38.971 15.461,39.048L13.93,42.743C14.229,42.867 14.551,42.931 14.875,42.931L14.875,38.931ZM15.461,39.048C15.647,39.125 15.816,39.238 15.958,39.38L13.128,42.207C13.358,42.436 13.63,42.618 13.93,42.743L15.461,39.048ZM15.958,39.379L12.813,36.235L9.985,39.063L13.129,42.208L15.958,39.379ZM12.813,36.234C12.262,35.684 11.516,35.375 10.738,35.375L10.736,39.375C10.455,39.375 10.185,39.263 9.986,39.064L12.813,36.234ZM10.737,35.375L4.563,35.375L4.563,39.375L10.737,39.375L10.737,35.375ZM4.563,35.375C4.347,35.375 4.14,35.289 3.988,35.137L1.16,37.965C2.062,38.868 3.286,39.375 4.563,39.375L4.563,35.375ZM3.988,35.137C3.836,34.985 3.75,34.778 3.75,34.563L-0.25,34.563C-0.25,35.839 0.257,37.063 1.16,37.965L3.988,35.137ZM3.75,34.563C3.75,34.347 3.836,34.14 3.988,33.988L1.16,31.16C0.257,32.062 -0.25,33.286 -0.25,34.563L3.75,34.563ZM3.988,33.988C4.14,33.836 4.347,33.75 4.563,33.75L4.563,29.75C3.286,29.75 2.062,30.257 1.16,31.16L3.988,33.988ZM4.563,33.75L38.312,33.75L38.312,29.75L4.563,29.75L4.563,33.75ZM38.312,33.75C38.528,33.75 38.735,33.836 38.887,33.988L41.715,31.16C40.813,30.257 39.589,29.75 38.312,29.75L38.312,33.75ZM38.887,33.988C39.039,34.14 39.125,34.347 39.125,34.563L43.125,34.563C43.125,33.286 42.618,32.062 41.715,31.16L38.887,33.988ZM39.125,34.563C39.125,34.778 39.039,34.985 38.887,35.137L41.715,37.965C42.618,37.063 43.125,35.839 43.125,34.563L39.125,34.563ZM38.887,35.137C38.735,35.289 38.528,35.375 38.312,35.375L38.312,39.375C39.589,39.375 40.813,38.868 41.715,37.965L38.887,35.137Z" fill="#FFFFFF"/>
<path d="M3.5,30.344C3.5,31.448 4.395,32.344 5.5,32.344C6.605,32.344 7.5,31.448 7.5,30.344L3.5,30.344ZM39.375,30.318C39.375,29.213 38.48,28.318 37.375,28.318C36.27,28.318 35.375,29.213 35.375,30.318L39.375,30.318ZM7.5,30.344L7.5,30.318L3.5,30.318L3.5,30.344L7.5,30.344ZM7.5,30.318C7.5,27.706 8.538,25.838 10.169,24.572C11.857,23.262 14.318,22.5 17.219,22.5L17.219,18.5C13.674,18.5 10.276,19.425 7.716,21.412C5.098,23.444 3.5,26.484 3.5,30.318L7.5,30.318ZM17.219,22.5L25.656,22.5L25.656,18.5L17.219,18.5L17.219,22.5ZM25.656,22.5C28.553,22.5 31.015,23.266 32.703,24.582C34.336,25.855 35.375,27.731 35.375,30.344L39.375,30.344C39.375,26.511 37.777,23.466 35.162,21.427C32.603,19.433 29.205,18.5 25.656,18.5L25.656,22.5ZM39.375,30.344L39.375,30.318L35.375,30.318L35.375,30.344L39.375,30.344Z" fill="#FFFFFF"/>
<path d="M28.229,10.894C28.101,9.797 27.108,9.011 26.011,9.138C24.914,9.266 24.128,10.259 24.256,11.356L28.229,10.894ZM25.127,18.853C25.255,19.95 26.248,20.736 27.345,20.608C28.442,20.48 29.228,19.488 29.101,18.39L25.127,18.853ZM24.256,11.356L25.127,18.853L29.101,18.39L28.229,10.894L24.256,11.356Z" fill="#FFFFFF"/>
<path d="M28,52.25C26.895,52.25 26,53.145 26,54.25C26,55.355 26.895,56.25 28,56.25L28,52.25ZM44.325,54.25L44.325,56.25L44.325,56.25L44.325,54.25ZM48.065,50.78L46.076,50.57L46.073,50.6L46.07,50.631L48.065,50.78ZM54.247,11.335C54.363,10.237 53.567,9.252 52.468,9.136C51.37,9.02 50.385,9.816 50.269,10.915L54.247,11.335ZM28,56.25L44.325,56.25L44.325,52.25L28,52.25L28,56.25ZM44.325,56.25C45.776,56.25 47.173,55.702 48.236,54.715L45.516,51.783C45.192,52.083 44.767,52.25 44.325,52.25L44.325,56.25ZM48.236,54.715C49.3,53.728 49.951,52.376 50.059,50.929L46.07,50.631C46.037,51.071 45.839,51.482 45.516,51.783L48.236,54.715ZM50.054,50.99L54.247,11.335L50.269,10.915L46.076,50.57L50.054,50.99Z" fill="#FFFFFF"/>
<path d="M39.185,10.64C38.917,11.712 39.568,12.797 40.64,13.065C41.712,13.333 42.797,12.682 43.065,11.61L39.185,10.64ZM43,3.625L42.355,1.732C41.712,1.951 41.224,2.481 41.06,3.14L43,3.625ZM49.152,3.643C50.198,3.287 50.757,2.151 50.401,1.105C50.045,0.06 48.909,-0.499 47.863,-0.143L49.152,3.643ZM43.065,11.61L44.94,4.11L41.06,3.14L39.185,10.64L43.065,11.61ZM43.645,5.518L49.152,3.643L47.863,-0.143L42.355,1.732L43.645,5.518Z" fill="#FFFFFF"/>
<line x1="24.25" y1="9.125" x2="54.25" y2="9.125" stroke="#FFFFFF" stroke-width="2" stroke-miterlimit="10" stroke-linecap="round"/>
</svg>
