<svg width="36" height="44" viewBox="0 0 36 44" fill="none" xmlns="http://www.w3.org/2000/svg" xmlns:xlink="http://www.w3.org/1999/xlink">
<path d="M4,22C4,20.895 3.105,20 2,20C0.895,20 0,20.895 0,22L4,22ZM2,38L0,38L2,38ZM36,22C36,20.895 35.105,20 34,20C32.895,20 32,20.895 32,22L36,22ZM0,22L0,38L4,38L4,22L0,22ZM0,38C0,39.591 0.632,41.117 1.757,42.243L4.586,39.414C4.211,39.039 4,38.53 4,38L0,38ZM1.757,42.243C2.883,43.368 4.409,44 6,44L6,40C5.47,40 4.961,39.789 4.586,39.414L1.757,42.243ZM6,44L30,44L30,40L6,40L6,44ZM30,44C31.591,44 33.117,43.368 34.243,42.243L31.414,39.414C31.039,39.789 30.53,40 30,40L30,44ZM34.243,42.243C35.368,41.117 36,39.591 36,38L32,38C32,38.53 31.789,39.039 31.414,39.414L34.243,42.243ZM36,38L36,22L32,22L32,38L36,38Z" fill="#18172B"/>
<path d="M24.586,11.414C25.367,12.195 26.633,12.195 27.414,11.414C28.195,10.633 28.195,9.367 27.414,8.586L24.586,11.414ZM18,2L19.414,0.586C18.633,-0.195 17.367,-0.195 16.586,0.586L18,2ZM8.586,8.586C7.805,9.367 7.805,10.633 8.586,11.414C9.367,12.195 10.633,12.195 11.414,11.414L8.586,8.586ZM27.414,8.586L19.414,0.586L16.586,3.414L24.586,11.414L27.414,8.586ZM16.586,0.586L8.586,8.586L11.414,11.414L19.414,3.414L16.586,0.586Z" fill="#18172B"/>
<line x1="16" y1="2" x2="16" y2="28" stroke="#18172B" stroke-width="2" stroke-miterlimit="3.999327" stroke-linecap="round" stroke-linejoin="round"/>
</svg>
