<svg width="60" height="60" viewBox="0 0 60 60" fill="none" xmlns="http://www.w3.org/2000/svg" xmlns:xlink="http://www.w3.org/1999/xlink">
<path d="M12.551,14.377L13.307,16.228L13.315,16.225L12.551,14.377ZM11.371,16.662L13.164,15.777L13.164,15.776L11.371,16.662ZM28.32,53.32L30.121,52.452L30.12,52.45L28.32,53.32ZM31.685,53.32L33.487,54.188L33.494,54.173L33.501,54.158L31.685,53.32ZM48.566,16.732L46.751,15.893L46.75,15.894L48.566,16.732ZM48.188,12.571C42.471,10.242 36.503,9.25 30,9.25L30,13.25C36.081,13.25 41.522,14.175 46.678,16.276L48.188,12.571ZM30,9.25C23.505,9.25 17.094,10.336 11.787,12.528L13.315,16.225C18.039,14.273 23.912,13.25 30,13.25L30,9.25ZM11.795,12.525C11.216,12.762 10.318,13.21 9.727,14.073C9.004,15.13 9.005,16.39 9.578,17.548L13.164,15.776C13.124,15.695 13.17,15.75 13.164,15.907C13.162,15.984 13.147,16.066 13.12,16.147C13.093,16.226 13.058,16.288 13.028,16.332C12.972,16.414 12.939,16.423 12.998,16.383C13.054,16.345 13.154,16.291 13.307,16.228L11.795,12.525ZM9.577,17.547C9.578,17.547 9.577,17.547 9.578,17.548C9.578,17.549 9.578,17.549 9.579,17.55C9.58,17.552 9.581,17.555 9.583,17.558C9.586,17.565 9.591,17.574 9.596,17.586C9.607,17.609 9.621,17.639 9.639,17.677C9.674,17.752 9.72,17.852 9.778,17.975C9.892,18.222 10.046,18.558 10.237,18.974C10.619,19.805 11.142,20.949 11.771,22.325C13.029,25.075 14.708,28.749 16.513,32.684C20.12,40.547 24.243,49.481 26.519,54.191L30.12,52.45C27.866,47.784 23.761,38.889 20.149,31.016C16.558,23.189 13.428,16.31 13.164,15.777L9.577,17.547ZM26.518,54.188C26.834,54.844 27.329,55.398 27.945,55.785L30.073,52.398C30.094,52.411 30.111,52.43 30.121,52.452L26.518,54.188ZM27.945,55.785C28.561,56.172 29.275,56.377 30.002,56.377L30.002,52.377C30.027,52.377 30.052,52.384 30.073,52.398L27.945,55.785ZM30.002,56.377C30.73,56.377 31.444,56.172 32.06,55.785L29.932,52.398C29.953,52.384 29.978,52.377 30.002,52.377L30.002,56.377ZM32.06,55.785C32.676,55.398 33.171,54.844 33.487,54.188L29.884,52.452C29.894,52.43 29.911,52.411 29.932,52.398L32.06,55.785ZM33.501,54.158L50.382,17.57L46.75,15.894L29.869,52.482L33.501,54.158ZM50.382,17.571C50.778,16.713 50.865,15.672 50.446,14.683C50.023,13.687 49.191,12.98 48.187,12.571L46.679,16.276C46.8,16.325 46.84,16.363 46.836,16.359C46.83,16.354 46.794,16.317 46.763,16.244C46.732,16.172 46.72,16.095 46.722,16.026C46.725,15.96 46.741,15.915 46.751,15.893L50.382,17.571Z" fill="#838383"/>
<path d="M51.138,9.689L51.878,7.831L51.874,7.829L51.138,9.689ZM8.845,9.619L8.102,7.762L8.088,7.768L8.845,9.619ZM7.548,11.236L5.645,11.852L5.666,11.917L5.692,11.981L7.548,11.236ZM8.682,14.063L6.826,14.807L6.853,14.874L6.885,14.939L8.682,14.063ZM11.3,14.768L10.576,12.904L10.566,12.908L11.3,14.768ZM30,11.25L30,9.25L29.997,9.25L30,11.25ZM48.703,14.766L47.956,16.621L47.977,16.629L48.703,14.766ZM51.314,14.072L53.139,14.891L53.154,14.858L53.167,14.824L51.314,14.072ZM52.459,11.25L54.312,12.002L54.336,11.944L54.355,11.885L52.459,11.25ZM51.874,7.829C45.56,5.331 37.794,3.625 30,3.625L30,7.625C37.246,7.625 44.513,9.219 50.403,11.549L51.874,7.829ZM30,3.625C22.227,3.625 14.57,5.171 8.102,7.762L9.589,11.475C15.582,9.075 22.733,7.625 30,7.625L30,3.625ZM8.088,7.768C7.767,7.899 7.096,8.193 6.532,8.711C5.917,9.276 5.173,10.393 5.645,11.852L9.451,10.62C9.481,10.712 9.503,10.831 9.5,10.97C9.497,11.109 9.469,11.237 9.428,11.347C9.349,11.556 9.242,11.654 9.237,11.658C9.23,11.665 9.258,11.639 9.341,11.593C9.419,11.55 9.509,11.508 9.603,11.47L8.088,7.768ZM5.692,11.981L6.826,14.807L10.539,13.318L9.404,10.491L5.692,11.981ZM6.885,14.939C7.261,15.711 7.822,16.389 8.692,16.75C9.419,17.052 10.172,17.023 10.447,17.023L10.447,13.023C10.349,13.023 10.281,13.023 10.219,13.022C10.158,13.021 10.124,13.019 10.104,13.017C10.065,13.013 10.125,13.014 10.227,13.056C10.279,13.078 10.333,13.107 10.384,13.142C10.435,13.177 10.472,13.211 10.498,13.237C10.546,13.288 10.532,13.293 10.48,13.186L6.885,14.939ZM10.447,17.023C10.876,17.023 11.246,16.912 11.44,16.85C11.654,16.78 11.88,16.689 12.035,16.628L10.566,12.908C10.474,12.944 10.404,12.972 10.338,12.997C10.273,13.022 10.231,13.036 10.203,13.046C10.173,13.055 10.178,13.052 10.208,13.046C10.224,13.043 10.252,13.037 10.29,13.033C10.328,13.028 10.381,13.023 10.447,13.023L10.447,17.023ZM12.025,16.632C17.757,14.406 23.853,13.259 30.003,13.25L29.997,9.25C23.354,9.259 16.769,10.498 10.576,12.904L12.025,16.632ZM30,13.25C36.398,13.25 42.959,14.608 47.956,16.621L49.45,12.91C43.973,10.704 36.905,9.25 30,9.25L30,13.25ZM47.977,16.629C48.164,16.702 48.396,16.793 48.605,16.86C48.82,16.929 49.156,17.021 49.556,17.021L49.556,13.021C49.662,13.021 49.742,13.033 49.786,13.042C49.827,13.05 49.843,13.057 49.821,13.049C49.799,13.042 49.759,13.029 49.689,13.003C49.619,12.976 49.538,12.945 49.43,12.902L47.977,16.629ZM49.556,17.021C49.74,17.021 49.667,17.03 50.014,17.041C50.237,17.049 50.655,17.053 51.121,16.907C52.221,16.561 52.789,15.669 53.139,14.891L49.49,13.253C49.447,13.347 49.418,13.4 49.403,13.424C49.388,13.449 49.395,13.434 49.428,13.397C49.462,13.358 49.525,13.297 49.618,13.236C49.713,13.172 49.817,13.124 49.922,13.091C50.022,13.059 50.101,13.049 50.141,13.046C50.177,13.043 50.187,13.045 50.146,13.043C50.127,13.043 50.102,13.042 50.066,13.04C50.048,13.039 50.03,13.038 50.008,13.037C49.987,13.035 49.963,13.034 49.938,13.033C49.839,13.027 49.706,13.021 49.556,13.021L49.556,17.021ZM53.167,14.824L54.312,12.002L50.606,10.498L49.461,13.32L53.167,14.824ZM54.355,11.885C54.812,10.522 54.122,9.442 53.572,8.896C53.038,8.366 52.374,8.028 51.878,7.831L50.399,11.547C50.5,11.588 50.592,11.633 50.666,11.676C50.743,11.723 50.766,11.747 50.754,11.735C50.746,11.727 50.644,11.626 50.57,11.417C50.484,11.174 50.473,10.882 50.563,10.615L54.355,11.885Z" fill="#838383"/>
<path d="M22.5,26.25C24.571,26.25 26.25,24.571 26.25,22.5C26.25,20.429 24.571,18.75 22.5,18.75C20.429,18.75 18.75,20.429 18.75,22.5C18.75,24.571 20.429,26.25 22.5,26.25Z" fill="#838383"/>
<path d="M37.5,28.125C39.571,28.125 41.25,26.446 41.25,24.375C41.25,22.304 39.571,20.625 37.5,20.625C35.429,20.625 33.75,22.304 33.75,24.375C33.75,26.446 35.429,28.125 37.5,28.125Z" fill="#838383"/>
<path d="M30,41.25C32.071,41.25 33.75,39.571 33.75,37.5C33.75,35.429 32.071,33.75 30,33.75C27.929,33.75 26.25,35.429 26.25,37.5C26.25,39.571 27.929,41.25 30,41.25Z" fill="#838383"/>
</svg>
