<svg width="720" height="180" viewBox="0 0 720 180" fill="none" xmlns="http://www.w3.org/2000/svg" xmlns:xlink="http://www.w3.org/1999/xlink">
<rect  x="0" y="0" width="720" height="180" fill="#FFFFFF"/>
<g filter="url(#filterI25_216;25_72)">
<rect  x="402" y="36" width="110" height="110" rx="30" fill="#FFD200"/>
</g>
<path d="M286.444,88.222C286.444,99.391 277.391,108.444 266.222,108.444L266.222,112.444C279.6,112.444 290.444,101.6 290.444,88.222L286.444,88.222ZM266.222,108.444C255.054,108.444 246,99.391 246,88.222L242,88.222C242,101.6 252.845,112.444 266.222,112.444L266.222,108.444ZM246,88.222C246,77.054 255.054,68 266.222,68L266.222,64C252.845,64 242,74.845 242,88.222L246,88.222ZM266.222,68C277.391,68 286.444,77.054 286.444,88.222L290.444,88.222C290.444,74.845 279.6,64 266.222,64L266.222,68Z" fill="#838383"/>
<path d="M292.586,117.414C293.367,118.195 294.633,118.195 295.414,117.414C296.195,116.633 296.195,115.367 295.414,114.586L292.586,117.414ZM283.331,102.502C282.55,101.721 281.283,101.721 280.502,102.502C279.721,103.283 279.721,104.55 280.502,105.331L283.331,102.502ZM295.414,114.586L283.331,102.502L280.502,105.331L292.586,117.414L295.414,114.586Z" fill="#838383"/>
<path d="M441.5,66L441.5,64C440.87,64 440.278,64.296 439.9,64.8L441.5,66ZM434,76L432.4,74.8C432.14,75.146 432,75.567 432,76L434,76ZM434,111L432,111L434,111ZM479,76L481,76C481,75.567 480.86,75.146 480.6,74.8L479,76ZM471.5,66L473.1,64.8C472.722,64.296 472.13,64 471.5,64L471.5,66ZM439.9,64.8L432.4,74.8L435.6,77.2L443.1,67.2L439.9,64.8ZM432,76L432,111L436,111L436,76L432,76ZM432,111C432,112.857 432.737,114.637 434.05,115.95L436.879,113.121C436.316,112.559 436,111.796 436,111L432,111ZM434.05,115.95C435.363,117.263 437.143,118 439,118L439,114C438.204,114 437.441,113.684 436.879,113.121L434.05,115.95ZM439,118L474,118L474,114L439,114L439,118ZM474,118C475.857,118 477.637,117.263 478.95,115.95L476.121,113.121C475.559,113.684 474.796,114 474,114L474,118ZM478.95,115.95C480.263,114.637 481,112.857 481,111L477,111C477,111.796 476.684,112.559 476.121,113.121L478.95,115.95ZM481,111L481,76L477,76L477,111L481,111ZM480.6,74.8L473.1,64.8L469.9,67.2L477.4,77.2L480.6,74.8ZM471.5,64L441.5,64L441.5,68L471.5,68L471.5,64Z" fill="#FFFFFF"/>
<line x1="434" y1="74" x2="479" y2="74" stroke="#FFFFFF" stroke-width="2" stroke-miterlimit="3.999327" stroke-linecap="round" stroke-linejoin="round"/>
<path d="M468.5,86C468.5,84.895 467.605,84 466.5,84C465.395,84 464.5,84.895 464.5,86L468.5,86ZM456.5,96L456.5,98L456.5,96ZM448.5,86C448.5,84.895 447.605,84 446.5,84C445.395,84 444.5,84.895 444.5,86L448.5,86ZM464.5,86C464.5,88.122 463.657,90.157 462.157,91.657L464.985,94.485C467.236,92.235 468.5,89.183 468.5,86L464.5,86ZM462.157,91.657C460.657,93.157 458.622,94 456.5,94L456.5,98C459.683,98 462.735,96.736 464.985,94.485L462.157,91.657ZM456.5,94C454.378,94 452.343,93.157 450.843,91.657L448.015,94.485C450.265,96.736 453.317,98 456.5,98L456.5,94ZM450.843,91.657C449.343,90.157 448.5,88.122 448.5,86L444.5,86C444.5,89.183 445.764,92.235 448.015,94.485L450.843,91.657Z" fill="#FFFFFF"/>
<path d="M58,83.5L56.772,81.921C56.285,82.3 56,82.883 56,83.5L58,83.5ZM80.5,66L81.728,64.421C81.006,63.86 79.994,63.86 79.272,64.421L80.5,66ZM103,83.5L105,83.5C105,82.883 104.715,82.3 104.228,81.921L103,83.5ZM58,111L56,111L58,111ZM59.228,85.079L81.728,67.579L79.272,64.421L56.772,81.921L59.228,85.079ZM79.272,67.579L101.772,85.079L104.228,81.921L81.728,64.421L79.272,67.579ZM101,83.5L101,111L105,111L105,83.5L101,83.5ZM101,111C101,111.796 100.684,112.559 100.121,113.121L102.95,115.95C104.263,114.637 105,112.857 105,111L101,111ZM100.121,113.121C99.559,113.684 98.796,114 98,114L98,118C99.857,118 101.637,117.263 102.95,115.95L100.121,113.121ZM98,114L63,114L63,118L98,118L98,114ZM63,114C62.204,114 61.441,113.684 60.879,113.121L58.05,115.95C59.363,117.263 61.143,118 63,118L63,114ZM60.879,113.121C60.316,112.559 60,111.796 60,111L56,111C56,112.857 56.737,114.637 58.05,115.95L60.879,113.121ZM60,111L60,83.5L56,83.5L56,111L60,111Z" fill="#838383"/>
<path d="M71,116C71,117.105 71.895,118 73,118C74.105,118 75,117.105 75,116L71,116ZM73,91L73,89C71.895,89 71,89.895 71,91L73,91ZM88,91L90,91C90,89.895 89.105,89 88,89L88,91ZM86,116C86,117.105 86.895,118 88,118C89.105,118 90,117.105 90,116L86,116ZM75,116L75,91L71,91L71,116L75,116ZM73,93L88,93L88,89L73,89L73,93ZM86,91L86,116L90,116L90,91L86,91Z" fill="#838383"/>
<path d="M659.667,116C659.667,117.105 660.562,118 661.667,118C662.771,118 663.667,117.105 663.667,116L659.667,116ZM661.667,110.444L663.667,110.444L661.667,110.444ZM650.556,99.333L650.556,97.333L650.556,99.333ZM631.111,99.333L631.111,97.333L631.111,99.333ZM620,110.444L618,110.444L620,110.444ZM618,116C618,117.105 618.895,118 620,118C621.105,118 622,117.105 622,116L618,116ZM663.667,116L663.667,110.444L659.667,110.444L659.667,116L663.667,116ZM663.667,110.444C663.667,106.967 662.285,103.632 659.827,101.174L656.998,104.002C658.707,105.711 659.667,108.028 659.667,110.444L663.667,110.444ZM659.827,101.174C657.368,98.715 654.033,97.333 650.556,97.333L650.556,101.333C652.972,101.333 655.289,102.293 656.998,104.002L659.827,101.174ZM650.556,97.333L631.111,97.333L631.111,101.333L650.556,101.333L650.556,97.333ZM631.111,97.333C627.634,97.333 624.299,98.715 621.84,101.174L624.669,104.002C626.377,102.293 628.695,101.333 631.111,101.333L631.111,97.333ZM621.84,101.174C619.381,103.632 618,106.967 618,110.444L622,110.444C622,108.028 622.96,105.711 624.669,104.002L621.84,101.174ZM618,110.444L618,116L622,116L622,110.444L618,110.444Z" fill="#838383"/>
<path d="M649.944,77.111C649.944,82.143 645.865,86.222 640.833,86.222L640.833,90.222C648.074,90.222 653.944,84.352 653.944,77.111L649.944,77.111ZM640.833,86.222C635.801,86.222 631.722,82.143 631.722,77.111L627.722,77.111C627.722,84.352 633.592,90.222 640.833,90.222L640.833,86.222ZM631.722,77.111C631.722,72.079 635.801,68 640.833,68L640.833,64C633.592,64 627.722,69.87 627.722,77.111L631.722,77.111ZM640.833,68C645.865,68 649.944,72.079 649.944,77.111L653.944,77.111C653.944,69.87 648.074,64 640.833,64L640.833,68Z" fill="#838383"/>
<defs>
<filter id="filterI25_216;25_72" x="387" y="21" width="85" height="85" filterUnits="userSpaceOnUse" color-interpolation-filters="sRGB">
<feFlood flood-opacity="0" result="BackgroundImageFix"/>
<feColorMatrix in="SourceAlpha" type="matrix" values="0 0 0 0 0 0 0 0 0 0 0 0 0 0 0 0 0 0 127 0" result="hardAlpha"/>
<feMorphology radius="0" operator="dilate" in="SourceAlpha" result="0dropshadow"/>
<feOffset dx="0" dy="4"/>
<feGaussianBlur stdDeviation="7.5"/>
<feComposite in2="hardAlpha" operator="out"/>
<feColorMatrix type="matrix" values="0 0 0 0 0 0 0 0 0 0 0 0 0 0 0 0 0 0 0.1 0"/>
<feBlend mode="normal" in2="BackgroundImageFix" result="0dropshadow"/>
<feBlend mode="normal" in="SourceGraphic" in2="0dropshadow" result="shape"/>
</filter>
</defs>
</svg>
