<svg width="48" height="48" viewBox="0 0 48 48" fill="none" xmlns="http://www.w3.org/2000/svg" xmlns:xlink="http://www.w3.org/1999/xlink">
<path d="M26,16C26,14.895 25.104,14 24,14C22.895,14 22,14.895 22,16L26,16ZM22,32C22,33.105 22.895,34 24,34C25.104,34 26,33.105 26,32L22,32ZM22,16L22,32L26,32L26,16L22,16Z" transform="rotate(90 24 24)" fill="#FF7000"/>
<path d="M16,22C14.896,22 14,22.895 14,24C14,25.105 14.896,26 16,26L16,22ZM32,26C33.105,26 34,25.105 34,24C34,22.895 33.105,22 32,22L32,26ZM16,26L32,26L32,22L16,22L16,26Z" transform="rotate(90 24 24)" fill="#FF7000"/>
</svg>
