<svg width="20" height="32" viewBox="0 0 20 32" fill="none" xmlns="http://www.w3.org/2000/svg" xmlns:xlink="http://www.w3.org/1999/xlink">
<path d="M17.7,0.983C17.506,0.789 17.276,0.635 17.023,0.53C16.77,0.425 16.499,0.371 16.225,0.371C15.95,0.371 15.679,0.425 15.426,0.53C15.173,0.635 14.943,0.789 14.75,0.983L0.9,14.833C0.745,14.988 0.622,15.171 0.539,15.372C0.455,15.574 0.412,15.79 0.412,16.008C0.412,16.227 0.455,16.443 0.539,16.644C0.622,16.846 0.745,17.029 0.9,17.183L14.75,31.033C15.566,31.85 16.883,31.85 17.7,31.033C18.516,30.217 18.516,28.9 17.7,28.083L5.633,16L17.716,3.917C18.516,3.117 18.516,1.783 17.7,0.983Z" fill="#18172B" stroke="#18172B" stroke-width="0.4" stroke-miterlimit="3.999327"/>
</svg>
