<svg width="46" height="48" viewBox="0 0 46 48" fill="none" xmlns="http://www.w3.org/2000/svg" xmlns:xlink="http://www.w3.org/1999/xlink">
<path d="M44.08,3.388C44.331,3.011 44.476,2.573 44.498,2.121C44.519,1.669 44.418,1.22 44.205,0.821C43.991,0.422 43.673,0.088 43.285,-0.145C42.897,-0.377 42.453,-0.5 42,-0.5L2,-0.5C1.548,-0.5 1.104,-0.377 0.716,-0.144C0.328,0.088 0.011,0.421 -0.203,0.82C-0.416,1.219 -0.517,1.668 -0.496,2.119C-0.474,2.571 -0.33,3.009 -0.08,3.385L19.5,32.757L19.5,42L12,42L12,47L32,47L32,42L24.5,42L24.5,32.757L44.08,3.388L44.08,3.388ZM22,27.492L13.338,14.5L30.663,14.5L22,27.492ZM37.33,4.5L33.998,9.5L10.003,9.5L6.67,4.5L37.33,4.5L37.33,4.5Z" fill="#838383"/>
</svg>
