<svg width="42" height="36" viewBox="0 0 42 36" fill="none" xmlns="http://www.w3.org/2000/svg" xmlns:xlink="http://www.w3.org/1999/xlink">
<path d="M28.989,-0.82C25.119,-0.82 21.813,1.938 19.996,3.839C18.18,1.938 14.881,-0.82 11.013,-0.82C4.347,-0.82 -0.308,3.826 -0.308,10.478C-0.308,17.807 5.473,22.545 11.065,27.127C13.705,29.292 16.437,31.53 18.532,34.011C18.885,34.426 19.402,34.666 19.945,34.666L20.052,34.666C20.596,34.666 21.111,34.425 21.462,34.011C23.561,31.53 26.292,29.29 28.934,27.127C34.524,22.546 40.308,17.809 40.308,10.478C40.308,3.826 35.654,-0.82 28.989,-0.82L28.989,-0.82Z" stroke="#18172B" stroke-width="2" stroke-miterlimit="3.999327"/>
</svg>
