<svg width="22" height="18" viewBox="0 0 22 18" fill="none" xmlns="http://www.w3.org/2000/svg" xmlns:xlink="http://www.w3.org/1999/xlink">
<path d="M3.414,8.586C2.633,7.805 1.367,7.805 0.586,8.586C-0.195,9.367 -0.195,10.633 0.586,11.414L3.414,8.586ZM8,16L6.586,17.414C6.98,17.808 7.52,18.02 8.077,17.999C8.633,17.977 9.156,17.725 9.519,17.302L8,16ZM21.519,3.302C22.237,2.463 22.14,1.2 21.302,0.481C20.463,-0.237 19.2,-0.14 18.481,0.698L21.519,3.302ZM0.586,11.414L6.586,17.414L9.414,14.586L3.414,8.586L0.586,11.414ZM9.519,17.302L21.519,3.302L18.481,0.698L6.481,14.698L9.519,17.302Z" fill="#6DC54A"/>
</svg>
