<svg width="26" height="26" viewBox="0 0 26 26" fill="none" xmlns="http://www.w3.org/2000/svg" xmlns:xlink="http://www.w3.org/1999/xlink">
<path d="M0.595,13.024C0.595,10.775 1.152,8.696 2.266,6.785C3.38,4.875 4.889,3.366 6.794,2.258C8.698,1.149 10.77,0.595 13.008,0.595C14.687,0.595 16.29,0.923 17.819,1.58C19.347,2.236 20.665,3.118 21.773,4.227C22.882,5.335 23.764,6.656 24.421,8.19C25.077,9.723 25.405,11.335 25.405,13.024C25.405,14.703 25.077,16.309 24.421,17.843C23.764,19.376 22.882,20.694 21.773,21.797C20.665,22.9 19.347,23.777 17.819,24.428C16.29,25.079 14.687,25.405 13.008,25.405C11.319,25.405 9.707,25.077 8.174,24.42C6.64,23.764 5.319,22.881 4.211,21.773C3.103,20.665 2.223,19.349 1.572,17.826C0.921,16.304 0.595,14.703 0.595,13.024ZM3.323,13.024C3.323,15.639 4.276,17.91 6.18,19.836C8.085,21.741 10.361,22.693 13.008,22.693C14.752,22.693 16.366,22.26 17.851,21.394C19.336,20.527 20.514,19.352 21.386,17.867C22.258,16.382 22.693,14.768 22.693,13.024C22.693,11.281 22.258,9.664 21.386,8.174C20.514,6.683 19.336,5.505 17.851,4.639C16.366,3.772 14.752,3.339 13.008,3.339C11.265,3.339 9.651,3.772 8.166,4.639C6.681,5.505 5.502,6.683 4.631,8.174C3.759,9.664 3.323,11.281 3.323,13.024ZM12.056,13.024L12.056,5.68C12.056,5.421 12.145,5.203 12.322,5.026C12.5,4.848 12.718,4.76 12.976,4.76C13.234,4.76 13.452,4.848 13.63,5.026C13.807,5.203 13.896,5.421 13.896,5.68L13.896,11.426L16.963,9.699C17.178,9.57 17.41,9.538 17.657,9.602C17.905,9.667 18.088,9.817 18.206,10.054C18.335,10.269 18.365,10.501 18.295,10.748C18.225,10.996 18.082,11.184 17.867,11.313L13.589,13.702C13.406,13.864 13.202,13.944 12.976,13.944C12.718,13.944 12.5,13.856 12.322,13.678C12.145,13.5 12.056,13.282 12.056,13.024Z" fill="#838383"/>
</svg>
