<svg width="32" height="22" viewBox="0 0 32 22" fill="none" xmlns="http://www.w3.org/2000/svg" xmlns:xlink="http://www.w3.org/1999/xlink">
<path d="M15.441,3.661C19.712,3.661 23.821,5.301 26.916,8.242C27.149,8.469 27.522,8.466 27.752,8.235L29.98,5.988C30.096,5.871 30.161,5.713 30.16,5.548C30.159,5.383 30.092,5.226 29.975,5.11C21.85,-2.67 9.031,-2.67 0.906,5.11C0.788,5.226 0.721,5.383 0.72,5.548C0.719,5.713 0.784,5.871 0.9,5.988L3.129,8.235C3.358,8.466 3.731,8.469 3.964,8.242C7.06,5.301 11.169,3.661 15.441,3.661ZM15.441,10.972C17.788,10.972 20.051,11.843 21.791,13.417C22.026,13.64 22.397,13.636 22.626,13.406L24.852,11.159C24.969,11.041 25.034,10.881 25.032,10.715C25.031,10.549 24.962,10.391 24.843,10.275C19.545,5.351 11.341,5.351 6.044,10.275C5.924,10.391 5.856,10.549 5.854,10.715C5.853,10.882 5.918,11.041 6.035,11.159L8.26,13.406C8.49,13.636 8.86,13.64 9.096,13.417C10.834,11.844 13.096,10.973 15.441,10.972ZM19.9,15.89C19.903,16.057 19.837,16.218 19.718,16.334L15.868,20.217C15.755,20.331 15.602,20.395 15.441,20.395C15.28,20.395 15.127,20.331 15.014,20.217L11.163,16.334C11.044,16.218 10.978,16.057 10.982,15.89C10.985,15.724 11.058,15.566 11.181,15.454C13.64,13.376 17.242,13.376 19.7,15.454C19.824,15.566 19.896,15.724 19.9,15.89Z" clip-rule="evenodd" fill-rule="evenodd" fill="#000000"/>
</svg>
